grf
version=1
nRows=19
nColumns=37
inDegrees=no
endheader
time	ground_force_1_vx	ground_force_1_vy	ground_force_1_vz	ground_force_1_px	ground_force_1_py	ground_force_1_pz	ground_moment_1_mx	ground_moment_1_my	ground_moment_1_mz	ground_force_2_vx	ground_force_2_vy	ground_force_2_vz	ground_force_2_px	ground_force_2_py	ground_force_2_pz	ground_moment_2_mx	ground_moment_2_my	ground_moment_2_mz	ground_force_3_vx	ground_force_3_vy	ground_force_3_vz	ground_force_3_px	ground_force_3_py	ground_force_3_pz	ground_moment_3_mx	ground_moment_3_my	ground_moment_3_mz	ground_force_4_vx	ground_force_4_vy	ground_force_4_vz	ground_force_4_px	ground_force_4_py	ground_force_4_pz	ground_moment_4_mx	ground_moment_4_my	ground_moment_4_mz
      2.13000000	      0.00000000	     -0.00000000	      0.00000000	      0.00000000	      0.00000000	      0.00000000	      0.00000000	      0.00000000	      0.00000000	      3.81217360	     40.80163956	   -402.41622925	   -465.10221922	  -1107.60794236	      0.00000000	      0.00000000	      0.00000000	    463.11579388	     -3.44333870	    -25.27969521	   -322.82293701	   -439.04853040	   -736.91726027	      0.00000000	     -0.00000000	     -0.00000000	  -2013.02573570	      0.00000000	     -0.00000000	      0.00000000	      0.00000000	      0.00000000	      0.00000000	      0.00000000	      0.00000000	      0.00000000
      2.14000000	      0.00000000	     -0.00000000	      0.00000000	      0.00000000	      0.00000000	      0.00000000	      0.00000000	      0.00000000	      0.00000000	      3.58870983	     41.19852066	   -406.99163818	   -464.34075353	  -1108.19120698	      0.00000000	      0.00000000	      0.00000000	    251.16056827	     -3.83081987	    -24.77861943	   -320.31463623	   -438.36412668	   -736.76646564	      0.00000000	      0.00000000	     -0.00000000	  -1865.55909043	      0.00000000	     -0.00000000	      0.00000000	      0.00000000	      0.00000000	      0.00000000	      0.00000000	      0.00000000	      0.00000000
      2.15000000	      0.00000000	     -0.00000000	      0.00000000	      0.00000000	      0.00000000	      0.00000000	      0.00000000	      0.00000000	      0.00000000	      3.38999939	     42.30481339	   -408.21237183	   -464.88493480	  -1107.56386851	      0.00000000	      0.00000000	      0.00000000	    284.60490961	     -3.90730024	    -24.60962643	   -318.48980713	   -437.37054179	   -736.72700646	      0.00000000	      0.00000000	     -0.00000000	  -1918.76505564	      0.00000000	     -0.00000000	      0.00000000	      0.00000000	      0.00000000	      0.00000000	      0.00000000	      0.00000000	      0.00000000
      2.16000000	      0.00000000	     -0.00000000	      0.00000000	      0.00000000	      0.00000000	      0.00000000	      0.00000000	      0.00000000	      0.00000000	      3.05387521	     42.94494629	   -412.84838867	   -463.77732112	  -1108.48289294	      0.00000000	      0.00000000	      0.00000000	    193.33822785	     -4.26693937	    -24.20014153	   -315.42706299	   -436.98593270	   -737.32956139	      0.00000000	      0.00000000	     -0.00000000	  -1879.90841622	      0.00000000	     -0.00000000	      0.00000000	      0.00000000	      0.00000000	      0.00000000	      0.00000000	      0.00000000	      0.00000000
      2.17000000	      0.00000000	     -0.00000000	      0.00000000	      0.00000000	      0.00000000	      0.00000000	      0.00000000	      0.00000000	      0.00000000	      2.94394684	     42.83504868	   -413.80181885	   -464.77726706	  -1108.05063137	      0.00000000	      0.00000000	      0.00000000	     61.88292515	     -4.89494391	    -24.09132724	   -314.09307861	   -435.59056704	   -735.96769224	      0.00000000	      0.00000000	     -0.00000000	  -1846.69734630	      0.00000000	     -0.00000000	      0.00000000	      0.00000000	      0.00000000	      0.00000000	      0.00000000	      0.00000000	      0.00000000
      2.18000000	      0.00000000	     -0.00000000	      0.00000000	      0.00000000	      0.00000000	      0.00000000	      0.00000000	      0.00000000	      0.00000000	      2.63409686	     43.58477020	   -415.42318726	   -464.12435461	  -1107.74686612	      0.00000000	      0.00000000	      0.00000000	    100.57508514	     -5.26537580	    -23.91952659	   -310.53942871	   -434.07066118	   -736.53729912	      0.00000000	      0.00000000	     -0.00000000	  -1798.68408408	      0.00000000	     -0.00000000	      0.00000000	      0.00000000	      0.00000000	      0.00000000	      0.00000000	      0.00000000	      0.00000000
      2.19000000	      0.00000000	     -0.00000000	      0.00000000	      0.00000000	      0.00000000	      0.00000000	      0.00000000	      0.00000000	      0.00000000	      2.83922768	     43.56927109	   -418.01916504	   -463.29469605	  -1109.38108780	      0.00000000	      0.00000000	      0.00000000	    172.13221662	     -5.48450629	    -23.65471601	   -307.19219971	   -432.94500275	   -735.90092970	      0.00000000	      0.00000000	     -0.00000000	  -1809.92161414	      0.00000000	     -0.00000000	      0.00000000	      0.00000000	      0.00000000	      0.00000000	      0.00000000	      0.00000000	      0.00000000
      2.20000000	      0.00000000	     -0.00000000	      0.00000000	      0.00000000	      0.00000000	      0.00000000	      0.00000000	      0.00000000	      0.00000000	      2.05184174	     44.05194092	   -417.31253052	   -464.18871422	  -1108.63709276	      0.00000000	      0.00000000	      0.00000000	    262.42508906	     -5.45376697	    -23.46283484	   -303.26855469	   -432.48571000	   -736.68834155	      0.00000000	      0.00000000	     -0.00000000	  -1921.08798371	      0.00000000	     -0.00000000	      0.00000000	      0.00000000	      0.00000000	      0.00000000	      0.00000000	      0.00000000	      0.00000000
      2.21000000	      0.00000000	     -0.00000000	      0.00000000	      0.00000000	      0.00000000	      0.00000000	      0.00000000	      0.00000000	      0.00000000	      2.59365296	     43.85869980	   -418.22534180	   -463.94115061	  -1108.26383861	      0.00000000	      0.00000000	      0.00000000	    334.73753080	     -5.71420777	    -23.17683551	   -300.99291992	   -430.76511808	   -736.00793590	      0.00000000	      0.00000000	     -0.00000000	  -1833.93755232	      0.00000000	     -0.00000000	      0.00000000	      0.00000000	      0.00000000	      0.00000000	      0.00000000	      0.00000000	      0.00000000
      2.22000000	      0.00000000	     -0.00000000	      0.00000000	      0.00000000	      0.00000000	      0.00000000	      0.00000000	      0.00000000	      0.00000000	      1.94753075	     43.99339676	   -419.63757324	   -463.83654166	  -1108.41808917	      0.00000000	      0.00000000	      0.00000000	    212.48934742	     -6.24007379	    -23.07348197	   -299.42733765	   -429.85182801	   -735.03306540	      0.00000000	      0.00000000	     -0.00000000	  -1766.82664159	      0.00000000	     -0.00000000	      0.00000000	      0.00000000	      0.00000000	      0.00000000	      0.00000000	      0.00000000	      0.00000000
      2.23000000	      0.00000000	     -0.00000000	      0.00000000	      0.00000000	      0.00000000	      0.00000000	      0.00000000	      0.00000000	      0.00000000	      2.26738286	     44.48324585	   -422.16857910	   -463.54946514	  -1108.92368100	      0.00000000	      0.00000000	      0.00000000	    368.92377092	     -7.14195118	    -22.89027915	   -297.53634644	   -427.34161016	   -735.82685954	      0.00000000	     -0.00000000	     -0.00000000	  -1746.94247244	      0.00000000	     -0.00000000	      0.00000000	      0.00000000	      0.00000000	      0.00000000	      0.00000000	      0.00000000	      0.00000000
      2.24000000	      0.00000000	     -0.00000000	      0.00000000	      0.00000000	      0.00000000	      0.00000000	      0.00000000	      0.00000000	      0.00000000	      1.94024801	     44.49087143	   -423.25683594	   -463.83263154	  -1109.17281820	      0.00000000	      0.00000000	      0.00000000	    159.40187977	     -8.59777843	    -23.11833306	   -295.11987305	   -425.70279913	   -736.88042276	      0.00000000	      0.00000000	     -0.00000000	  -1779.00217994	      0.00000000	     -0.00000000	      0.00000000	      0.00000000	      0.00000000	      0.00000000	      0.00000000	      0.00000000	      0.00000000
      2.25000000	      0.00000000	     -0.00000000	      0.00000000	      0.00000000	      0.00000000	      0.00000000	      0.00000000	      0.00000000	      0.00000000	      1.96263123	     44.98829651	   -423.78466797	   -464.38900302	  -1108.05298815	      0.00000000	      0.00000000	      0.00000000	    137.60998117	     -9.93560991	    -22.83849439	   -294.27676392	   -424.84914605	   -736.22764538	      0.00000000	      0.00000000	     -0.00000000	  -1778.00198149	      0.00000000	     -0.00000000	      0.00000000	      0.00000000	      0.00000000	      0.00000000	      0.00000000	      0.00000000	      0.00000000
      2.26000000	      0.00000000	     -0.00000000	      0.00000000	      0.00000000	      0.00000000	      0.00000000	      0.00000000	      0.00000000	      0.00000000	      2.31947327	     44.89897156	   -424.54736328	   -464.72383616	  -1107.64088937	      0.00000000	      0.00000000	      0.00000000	    393.49441885	    -11.19999415	    -22.55112932	   -295.64312744	   -422.93348824	   -733.83094653	      0.00000000	      0.00000000	     -0.00000000	  -1722.99830713	      0.00000000	     -0.00000000	      0.00000000	      0.00000000	      0.00000000	      0.00000000	      0.00000000	      0.00000000	      0.00000000
      2.27000000	      0.00000000	     -0.00000000	      0.00000000	      0.00000000	      0.00000000	      0.00000000	      0.00000000	      0.00000000	      0.00000000	      1.65759361	     45.24369049	   -426.55029297	   -463.95701800	  -1108.93411670	      0.00000000	      0.00000000	      0.00000000	     82.08433158	    -12.27101050	    -23.02939308	   -294.09948730	   -423.15596106	   -735.89240364	      0.00000000	      0.00000000	     -0.00000000	  -1562.56253827	      0.00000000	     -0.00000000	      0.00000000	      0.00000000	      0.00000000	      0.00000000	      0.00000000	      0.00000000	      0.00000000
      2.28000000	      0.00000000	     -0.00000000	      0.00000000	      0.00000000	      0.00000000	      0.00000000	      0.00000000	      0.00000000	      0.00000000	      2.10358095	     45.52245331	   -427.23474121	   -464.66240503	  -1108.17891933	      0.00000000	      0.00000000	      0.00000000	    364.84870626	    -13.06334698	    -23.17730789	   -296.42974854	   -422.65710376	   -735.23678583	      0.00000000	      0.00000000	     -0.00000000	  -1544.26342626	      0.00000000	     -0.00000000	      0.00000000	      0.00000000	      0.00000000	      0.00000000	      0.00000000	      0.00000000	      0.00000000
      2.29000000	      0.00000000	     -0.00000000	      0.00000000	      0.00000000	      0.00000000	      0.00000000	      0.00000000	      0.00000000	      0.00000000	      2.15037560	     45.92557526	   -427.16213989	   -465.18350770	  -1108.10794714	      0.00000000	      0.00000000	      0.00000000	    323.86398567	    -13.46986500	    -23.54478528	   -300.47286987	   -423.64442948	   -735.83460351	      0.00000000	      0.00000000	     -0.00000000	  -1530.98212369	      0.00000000	     -0.00000000	      0.00000000	      0.00000000	      0.00000000	      0.00000000	      0.00000000	      0.00000000	      0.00000000
      2.30000000	      0.00000000	     -0.00000000	      0.00000000	      0.00000000	      0.00000000	      0.00000000	      0.00000000	      0.00000000	      0.00000000	      1.73694563	     46.04716492	   -426.97738647	   -465.96528088	  -1107.85334098	      0.00000000	      0.00000000	      0.00000000	    363.44453339	    -13.83888451	    -23.65622590	   -304.90103149	   -425.53668731	   -736.60272147	      0.00000000	      0.00000000	     -0.00000000	  -1506.39561980	      0.00000000	     -0.00000000	      0.00000000	      0.00000000	      0.00000000	      0.00000000	      0.00000000	      0.00000000	      0.00000000
      2.31000000	      0.00000000	     -0.00000000	      0.00000000	      0.00000000	      0.00000000	      0.00000000	      0.00000000	      0.00000000	      0.00000000	      2.24412298	     46.30627060	   -426.12356567	   -465.81540486	  -1107.90415754	      0.00000000	      0.00000000	      0.00000000	    404.00380199	    -13.66584514	    -24.34905696	   -309.91674805	   -427.89548585	   -736.12367848	      0.00000000	      0.00000000	     -0.00000000	  -1474.38343853	      0.00000000	     -0.00000000	      0.00000000	      0.00000000	      0.00000000	      0.00000000	      0.00000000	      0.00000000	      0.00000000
